<svg width="863" height="476" viewBox="0 0 863 476" fill="none" xmlns="http://www.w3.org/2000/svg">
<rect width="863" height="476" fill="#EAFFBD"/>
<path d="M411.92 205.8C403.32 205.8 395.97 209.53 390.42 218.13H390.19V207.61H377.06V295.42H390.41V261.02C394.26 267.24 401.16 272.45 411 272.45C426.39 272.45 439.74 259.66 439.74 238.84C439.74 220.4 428.88 205.8 411.9 205.8H411.92ZM408.19 259.77C398.01 259.77 390.2 251.28 390.2 239.18C390.2 227.08 398.01 218.47 408.19 218.47C418.37 218.47 425.84 227.18 425.84 239.18C425.84 251.18 418.48 259.77 408.19 259.77Z" fill="#181818"/>
<path d="M476.87 260.45C467.03 260.45 459.22 253.89 458.2 242.68H505.84V238.72C505.84 214.96 490.56 205.79 475.97 205.79C457.64 205.79 444.63 219.93 444.63 239.28C444.63 258.63 458.43 272.43 476.88 272.43C491.14 272.43 502 264.62 506.3 253.53L493.74 248.55C490.8 255.79 484.69 260.43 476.88 260.43L476.87 260.45ZM475.85 217.34C483.66 217.34 491.35 221.64 492.26 233.07H458.88C460.46 223.79 466.57 217.34 475.85 217.34Z" fill="#181818"/>
<path d="M631.85 217.23H631.62C627.66 210.44 620.53 205.69 611.37 205.69C595.98 205.69 582.52 218.48 582.52 239.18C582.52 257.74 593.5 272.33 611.37 272.33C619.63 272.33 627.66 268.94 632.42 261.13H632.65V270.52H645.21V180H631.86V217.23H631.85ZM614.2 259.66C603.9 259.66 596.43 251.06 596.43 238.95C596.43 226.84 603.79 218.47 614.08 218.47C624.37 218.47 632.07 226.84 632.07 238.95C632.07 251.06 624.38 259.66 614.19 259.66H614.2Z" fill="#181818"/>
<path d="M686.38 205.8C667.37 205.8 654.13 219.6 654.13 239.18C654.13 258.76 667.37 272.45 686.38 272.45C705.39 272.45 718.52 258.76 718.52 239.18C718.52 219.6 705.39 205.8 686.38 205.8ZM686.38 259.77C675.63 259.77 668.16 251.17 668.16 239.18C668.16 227.19 675.63 218.47 686.38 218.47C697.13 218.47 704.6 227.07 704.6 239.18C704.6 251.29 697.13 259.77 686.38 259.77Z" fill="#181818"/>
<path d="M205.54 282.83C224.19 282.83 239.31 267.71 239.31 249.06H171.77C171.77 267.71 186.89 282.83 205.54 282.83Z" fill="#181818"/>
<path d="M171.77 195.3H145V249.06H171.77V195.3Z" fill="#181818"/>
<path d="M266.08 195.3H239.31V249.06H266.08V195.3Z" fill="#181818"/>
<path d="M352.08 244.66C352.08 247.72 351.4 250.42 350.04 252.78C348.68 255.14 346.8 256.97 344.4 258.29C342 259.61 339.32 260.27 336.35 260.27C333.38 260.27 330.57 259.61 328.17 258.29C325.77 256.97 323.89 255.13 322.53 252.78C321.17 250.43 320.49 247.72 320.49 244.66V207.61H307.48V244.66C307.48 249.95 308.74 254.7 311.26 258.91C313.78 263.12 317.21 266.39 321.54 268.7C325.88 271.01 330.81 272.17 336.35 272.17C341.89 272.17 346.72 270.99 351.1 268.64C355.48 266.29 358.91 263.02 361.38 258.85C363.86 254.68 365.1 249.95 365.1 244.66V207.61H352.09V244.66H352.08Z" fill="#181818"/>
<path d="M558.89 209.27C554.55 206.96 549.62 205.8 544.08 205.8C538.54 205.8 533.71 206.98 529.33 209.33C524.95 211.68 521.52 214.95 519.05 219.12C516.57 223.29 515.33 228.02 515.33 233.31V270.36H528.34V233.31C528.34 230.25 529.02 227.55 530.38 225.19C531.74 222.84 533.62 221 536.02 219.68C538.42 218.36 541.1 217.7 544.07 217.7C547.04 217.7 549.85 218.36 552.25 219.68C554.65 221 556.53 222.84 557.89 225.19C559.25 227.54 559.93 230.25 559.93 233.31V270.36H572.94V233.31C572.94 228.02 571.68 223.27 569.16 219.06C566.64 214.85 563.21 211.58 558.88 209.27H558.89Z" fill="#181818"/>
</svg>
